<svg width="65" height="65" xmlns="http://www.w3.org/2000/svg" xmlns:xlink="http://www.w3.org/1999/xlink" xml:space="preserve" overflow="hidden"><g transform="translate(-330 -187)"><path d="M378.75 201.219C379.872 201.219 380.781 202.128 380.781 203.25L380.781 235.75C380.781 236.872 379.872 237.781 378.75 237.781L346.25 237.781C345.128 237.781 344.219 236.872 344.219 235.75L344.219 203.25C344.219 202.128 345.128 201.219 346.25 201.219Z" stroke="#0473EA" stroke-width="6.77083" fill="none"/><path d="M354.375 189.708 354.375 195.125 354.375 195.125 348.958 195.125 348.958 195.125 348.958 189.708C348.958 188.213 350.171 187 351.667 187L351.667 187C353.162 187 354.375 188.213 354.375 189.708Z" fill="#38D200"/><path d="M376.042 189.708 376.042 195.125 376.042 195.125 370.625 195.125 370.625 195.125 370.625 189.708C370.625 188.213 371.838 187 373.333 187L373.333 187C374.829 187 376.042 188.213 376.042 189.708Z" fill="#38D200"/><path d="M370.625 249.292 370.625 243.875 370.625 243.875 376.042 243.875 376.042 243.875 376.042 249.292C376.042 250.787 374.829 252 373.333 252L373.333 252C371.838 252 370.625 250.787 370.625 249.292Z" fill="#38D200"/><path d="M348.958 249.292 348.958 243.875 348.958 243.875 354.375 243.875 354.375 243.875 354.375 249.292C354.375 250.787 353.162 252 351.667 252L351.667 252C350.171 252 348.958 250.787 348.958 249.292Z" fill="#38D200"/><path d="M332.708 227.625 338.125 227.625 338.125 227.625 338.125 233.042 338.125 233.042 332.708 233.042C331.213 233.042 330 231.829 330 230.333L330 230.333C330 228.838 331.213 227.625 332.708 227.625Z" fill="#38D200"/><path d="M332.708 205.958 338.125 205.958 338.125 205.958 338.125 211.375 338.125 211.375 332.708 211.375C331.213 211.375 330 210.162 330 208.667L330 208.667C330 207.171 331.213 205.958 332.708 205.958Z" fill="#38D200"/><path d="M392.292 211.375 386.875 211.375 386.875 211.375 386.875 205.958 386.875 205.958 392.292 205.958C393.787 205.958 395 207.171 395 208.667L395 208.667C395 210.162 393.787 211.375 392.292 211.375Z" fill="#38D200"/><path d="M392.292 233.042 386.875 233.042 386.875 233.042 386.875 227.625 386.875 227.625 392.292 227.625C393.787 227.625 395 228.838 395 230.333L395 230.333C395 231.829 393.787 233.042 392.292 233.042Z" fill="#38D200"/><path d="M355.052 212.052 369.948 212.052 369.948 226.948 355.052 226.948Z" fill="#38D200"/></g></svg>