<svg width="62" height="54" xmlns="http://www.w3.org/2000/svg" xmlns:xlink="http://www.w3.org/1999/xlink" xml:space="preserve" overflow="hidden"><defs><clipPath id="clip0"><rect x="106" y="191" width="62" height="54"/></clipPath></defs><g clip-path="url(#clip0)" transform="translate(-106 -191)"><path d="M31.8462 0C34.905-1.22979e-15 37.3846 2.47965 37.3846 5.53846L37.3846 5.53846C37.3846 8.59727 34.905 11.0769 31.8462 11.0769L5.53846 11.0769C2.47965 11.0769 -6.14893e-16 8.59727 -6.14893e-16 5.53846L-6.14893e-16 5.53846C-1.84468e-15 2.47965 2.47965 -6.14893e-16 5.53846 -6.14893e-16Z" fill="#0473EA" transform="matrix(6.23147e-17 1 -1.01768 6.12323e-17 134.182 207.615)"/><path d="M20.7692 0C23.828-1.22979e-15 26.3077 2.47965 26.3077 5.53846L26.3077 5.53846C26.3077 8.59727 23.828 11.0769 20.7692 11.0769L5.53846 11.0769C2.47965 11.0769 -6.14893e-16 8.59727 -6.14893e-16 5.53846L-6.14893e-16 5.53846C-1.84468e-15 2.47965 2.47965 -6.14893e-16 5.53846 -6.14893e-16Z" fill="#0473EA" transform="matrix(6.23147e-17 1 -1.01768 6.12323e-17 151.091 218.692)"/><path d="M9.69231 0C12.7511-1.22979e-15 15.2308 2.47965 15.2308 5.53846L15.2308 5.53846C15.2308 8.59727 12.7511 11.0769 9.69231 11.0769L5.53846 11.0769C2.47965 11.0769 -6.14893e-16 8.59727 -6.14893e-16 5.53846L-6.14893e-16 5.53846C-1.84468e-15 2.47965 2.47965 -6.14893e-16 5.53846 -6.14893e-16Z" fill="#0473EA" transform="matrix(6.23147e-17 1 -1.01768 6.12323e-17 117.273 229.769)"/><path d="M48.4615 0C51.5204-1.22979e-15 54 2.47965 54 5.53846L54 5.53846C54 8.59727 51.5204 11.0769 48.4615 11.0769L5.53846 11.0769C2.47965 11.0769 -6.14893e-16 8.59727 -6.14893e-16 5.53846L-6.14893e-16 5.53846C-1.84468e-15 2.47965 2.47965 -6.14893e-16 5.53846 -6.14893e-16Z" fill="#38D200" transform="matrix(6.23147e-17 1 -1.01768 6.12323e-17 168 191)"/></g></svg>