<svg width="70" height="67" xmlns="http://www.w3.org/2000/svg" xmlns:xlink="http://www.w3.org/1999/xlink" xml:space="preserve" overflow="hidden"><defs><clipPath id="clip0"><rect x="556" y="185" width="70" height="67"/></clipPath></defs><g clip-path="url(#clip0)" transform="translate(-556 -185)"><path d="M12.4752 6.93069C9.41798 6.93069 6.93069 9.41798 6.93069 12.4752L6.93069 27.7228C6.93069 30.78 9.41798 33.2673 12.4752 33.2673L42.9703 33.2673C46.0276 33.2673 48.5149 30.78 48.5149 27.7228L48.5149 12.4752C48.5149 9.41798 46.0276 6.93069 42.9703 6.93069L12.4752 6.93069M12.4752 0 42.9703 0C49.8602 0 55.4455 5.58536 55.4455 12.4752L55.4455 27.7228C55.4455 34.6126 49.8602 40.198 42.9703 40.198L12.4752 40.198C5.58536 40.198 0 34.6126 0 27.7228L0 12.4752C0 5.58536 5.58536 0 12.4752 0Z" fill="#0473EA" transform="matrix(1 0 0 1.00699 556 199.656)"/><path d="M5.54455 0 11.0891 0 11.0891 0 11.0891 11.0891 11.0891 11.0891 5.54455 11.0891C2.48238 11.0891 0 8.60674 0 5.54455L0 5.54455C-1.23114e-15 2.48238 2.48238 -6.15569e-16 5.54455 -6.15569e-16Z" fill="#38D200" transform="matrix(6.12323e-17 1.00699 -1 6.16606e-17 589.267 185)"/><path d="M8.31683 4.15842C8.31683 6.45505 6.45505 8.31683 4.15842 8.31683 1.86179 8.31683 -6.15569e-16 6.45505 0 4.15842-1.23114e-15 1.86179 1.86179 -6.15569e-16 4.15842 0 6.45505 -6.15569e-16 8.31683 1.86179 8.31683 4.15842Z" fill="#38D200" transform="matrix(1 0 0 1.00699 568.475 215.708)"/><path d="M8.31683 4.15842C8.31683 6.45505 6.45505 8.31683 4.15842 8.31683 1.86179 8.31683 -6.15569e-16 6.45505 0 4.15842-1.23114e-15 1.86179 1.86179 -6.15569e-16 4.15842 0 6.45505 -6.15569e-16 8.31683 1.86179 8.31683 4.15842Z" fill="#38D200" transform="matrix(1 0 0 1.00699 589.267 215.708)"/><path d="M10.396 5.19802C10.396 8.06881 8.06881 10.396 5.19802 10.396 2.32723 10.396 -6.15569e-16 8.06881 -6.15569e-16 5.19802-1.84671e-15 2.32723 2.32723-1.23114e-15 5.19802-1.23114e-15 8.06881-2.46228e-15 10.396 2.32723 10.396 5.19802Z" fill="#38D200" transform="matrix(1 0 0 1.00699 615.604 193.375)"/><path d="M10.0495 5.19802C10.0495 7.87742 7.87742 10.0495 5.19802 10.0495 2.51862 10.0495 0.346535 7.87742 0.346535 5.19802 0.346535 2.51862 2.51862 0.346535 5.19802 0.346535 7.87742 0.346535 10.0495 2.51862 10.0495 5.19802Z" stroke="#38D200" stroke-width="0.693069" fill="none" transform="matrix(1 0 0 1.00699 615.604 193.375)"/><path d="M296.002 992.6 301.43 992.6 301.43 973.069" stroke="#38D200" stroke-width="4.15842" stroke-linecap="round" fill="none" transform="matrix(1 0 0 1.00699 319.602 -778.823)"/><path d="M29.4554 0C31.5607 -6.15569e-16 33.2673 1.70664 33.2673 3.81188L33.2673 3.81188C33.2673 5.91712 31.5607 7.62376 29.4554 7.62376L3.81188 7.62376C1.70664 7.62376 0 5.91712 0 3.81188L0 3.81188C-6.15569e-16 1.70664 1.70664 -6.15569e-16 3.81188-1.23114e-15Z" fill="#38D200" transform="matrix(1 0 0 1.00699 567.089 244.323)"/></g></svg>