<svg width="96" height="96" xmlns="http://www.w3.org/2000/svg" xmlns:xlink="http://www.w3.org/1999/xlink" xml:space="preserve" overflow="hidden"><defs><clipPath id="clip0"><rect x="534" y="177" width="96" height="96"/></clipPath></defs><g clip-path="url(#clip0)" transform="translate(-534 -177)"><path d="M582 233.728 582 250.746" stroke="#0473EA" stroke-width="11.3455" stroke-linecap="round" fill="none"/><path d="M582 216.709 582 216.709" stroke="#0473EA" stroke-width="11.3455" stroke-linecap="round" fill="none"/><path d="" stroke="#707070" stroke-width="0.709094" fill="none"/><path d="M565.921 241.08C556.966 232.274 556.846 217.877 565.652 208.922 574.457 199.968 588.855 199.846 597.81 208.652 606.764 217.458 606.885 231.856 598.079 240.81 598.035 240.855 597.99 240.9 597.946 240.945 595.739 243.151 595.739 246.727 597.946 248.933 600.152 251.14 603.728 251.14 605.934 248.933 619.147 235.641 619.083 214.154 605.791 200.941 592.498 187.728 571.011 187.792 557.798 201.084 544.585 214.378 544.649 235.864 557.941 249.077 560.514 251.634 563.479 253.761 566.724 255.379L566.628 241.737C566.388 241.519 566.148 241.307 565.921 241.08Z" fill="#38D200"/></g></svg>